<svg width="181" height="38" viewBox="0 0 181 38" fill="none" xmlns="http://www.w3.org/2000/svg">
<path d="M39.4464 12.6465C39.719 12.3559 40.0276 12.1645 40.3796 12.0634C40.7406 11.9636 41.1143 11.913 41.5006 11.9118H44.9898C45.5728 11.9118 46.0494 11.4371 46.0494 10.8504C46.0494 10.2638 45.5728 9.78906 44.9898 9.78906H41.3887C40.734 9.79027 40.0848 9.90037 39.441 10.1194C38.796 10.3432 38.222 10.6952 37.7189 11.1754V11.1772C37.2183 11.6609 36.8092 12.2819 36.4915 13.04C36.175 13.8005 36.0174 14.7151 36.0186 15.7837C36.0174 16.8511 36.1708 17.7609 36.4789 18.513C36.7845 19.2615 37.1895 19.8734 37.6937 20.3487C38.1943 20.8205 38.7635 21.1628 39.4013 21.3758C40.0342 21.5864 40.6871 21.6917 41.3598 21.6917H44.9898C45.5764 21.6917 46.0494 21.217 46.0494 20.6303C46.0494 20.0455 45.5764 19.5707 44.9898 19.5707H41.5295C41.1408 19.5707 40.7665 19.5244 40.4067 19.4318C40.0529 19.3415 39.7358 19.1652 39.4554 18.9029V18.9011C39.1762 18.6435 38.9536 18.2693 38.7876 17.7783C38.6203 17.2909 38.5367 16.6453 38.5367 15.8415C38.5367 15.0159 38.6203 14.3499 38.7876 13.8432C38.9548 13.3342 39.1744 12.9353 39.4464 12.6465Z" fill="#F40040"/>
<path fill-rule="evenodd" clip-rule="evenodd" d="M59.2967 15.7853C59.2967 16.8611 59.1379 17.7961 58.8202 18.5904C58.5025 19.3665 58.0621 20.0001 57.5151 20.4947C56.9682 20.9893 56.3148 21.3413 55.5747 21.5705C54.8346 21.7998 54.0404 21.9225 53.1938 21.9225C52.3291 21.9225 51.5187 21.7998 50.7948 21.5705C50.0548 21.3413 49.4013 20.9893 48.8544 20.4947C48.3074 20.0001 47.867 19.3665 47.5674 18.5904C47.2677 17.7961 47.1089 16.8611 47.1089 15.7853C47.1089 14.6914 47.2677 13.7564 47.5854 12.9639C47.9031 12.1878 48.3255 11.5343 48.8905 11.0415C49.4374 10.5289 50.071 10.1589 50.8129 9.91156C51.553 9.68232 52.3472 9.55957 53.2118 9.55957C54.0746 9.55957 54.8689 9.68232 55.6108 9.91156C56.3509 10.1589 57.0025 10.5289 57.5494 11.0415C58.0964 11.5343 58.5205 12.1878 58.8382 12.9639C59.1379 13.7564 59.2967 14.6914 59.2967 15.7853ZM56.7732 15.8033C56.7732 14.1625 56.4573 13.0524 55.8743 12.4693C55.2931 11.852 54.3923 11.5343 53.1938 11.5343C51.9772 11.5343 51.0945 11.852 50.5133 12.4693C49.9302 13.0524 49.6306 14.1625 49.6306 15.8033C49.6306 16.6138 49.701 17.3015 49.8418 17.8142C50.0006 18.343 50.2299 18.7654 50.5133 19.0831C50.8129 19.4008 51.1829 19.612 51.6414 19.7546C52.0819 19.8774 52.6107 19.9297 53.2118 19.9297C53.7931 19.9297 54.3057 19.8774 54.7642 19.7546C55.2046 19.612 55.5747 19.4008 55.8563 19.0831C56.1559 18.7654 56.3689 18.343 56.544 17.8142C56.6866 17.2853 56.7732 16.6138 56.7732 15.8033Z" fill="#F40040"/>
<path d="M1.26697 21.6914H14.2436C14.743 21.6914 15.228 21.6384 15.6985 21.5325C16.1727 21.4266 16.5957 21.2371 16.9675 20.9639C17.3394 20.6883 17.6378 20.3219 17.8628 19.8646C18.0866 19.4037 18.198 18.8273 18.1968 18.1354C18.198 17.4639 18.0908 16.8971 17.8754 16.435C17.6624 15.9777 17.3694 15.6113 16.9964 15.3357C16.6257 15.0637 16.1979 14.8694 15.713 14.7527C15.2328 14.6383 14.725 14.5806 14.1895 14.5794H12.1461C11.592 14.5812 11.1786 14.4693 10.9024 14.2599C10.6299 14.0559 10.4873 13.7256 10.4855 13.231C10.4873 12.7003 10.6461 12.3736 10.9476 12.1967C11.2671 12.0108 11.7238 11.9115 12.3158 11.9115H16.3989C16.9856 11.9097 17.4603 11.4368 17.4603 10.8501C17.4603 10.2635 16.9856 9.78872 16.3989 9.78872H12.4584C11.9602 9.78992 11.4578 9.84227 10.9512 9.94576H10.9494C10.4379 10.0541 9.97405 10.2436 9.55768 10.5144C9.1377 10.7863 8.79653 11.1467 8.53419 11.5956C8.26945 12.0493 8.13769 12.604 8.13889 13.2599C8.13649 13.9326 8.2532 14.4957 8.48907 14.9494C8.72132 15.3959 9.0288 15.7569 9.41148 16.0325C9.78934 16.3044 10.2165 16.4982 10.6931 16.6137C11.1636 16.7292 11.6479 16.787 12.1461 16.787H14.1317C14.6672 16.7882 15.0854 16.8784 15.3863 17.0577C15.6624 17.2184 15.8195 17.5812 15.8213 18.1931C15.8189 18.4832 15.7665 18.7118 15.6642 18.8791C15.5595 19.0536 15.4193 19.1943 15.2437 19.3014C15.0644 19.4073 14.8682 19.4784 14.6552 19.5145C14.4326 19.5506 14.2106 19.5692 13.9891 19.5704H2.5197V19.5686H2.42222C2.32836 19.5686 2.25436 19.4946 2.25436 19.4007V19.3033H2.25255V5.63525C2.25255 4.70202 2.63162 3.85725 3.24534 3.24533C3.85726 2.6316 4.70203 2.25254 5.63345 2.25254H29.0994C29.7221 2.25254 30.2239 1.74893 30.2258 1.12798C30.2239 0.50523 29.7221 0.00341797 29.0994 0.00341797H5.63345C2.52512 0.00341797 0.00341797 2.52511 0.00341797 5.63525V20.4278C0.00341797 21.1264 0.568406 21.6914 1.26697 21.6914Z" fill="#F40040"/>
<path fill-rule="evenodd" clip-rule="evenodd" d="M84.6758 5.64446V16.6139C84.6758 17.2312 84.1649 17.7439 83.5476 17.7439C82.9303 17.7439 82.4176 17.2312 82.4176 16.6139V5.64446C82.4176 4.70943 82.0476 3.86285 81.4303 3.24552C80.8129 2.62818 79.9663 2.25814 79.0313 2.25814H34.6915C34.6031 2.25814 34.5327 2.32854 34.5164 2.41699V19.7186C34.5164 20.8125 33.6337 21.6934 32.5399 21.6934H24.4441C23.7221 21.6934 23.0344 21.5875 22.3809 21.3757C21.7293 21.1645 21.1462 20.8125 20.6354 20.354C20.1246 19.8775 19.7184 19.2601 19.4188 18.52C19.1192 17.7601 18.9766 16.8431 18.9766 15.7854C18.9766 14.7095 19.1192 13.7926 19.4188 13.0164C19.7184 12.2402 20.1246 11.5886 20.6535 11.0759C21.1643 10.5651 21.7816 10.195 22.5055 9.9297C23.2094 9.68241 23.9856 9.55966 24.816 9.55966C26.7384 9.55966 28.1662 10.0705 29.1012 11.1301C29.9658 12.1175 30.4243 13.5272 30.4767 15.3449V15.4677C30.4586 16.1915 29.8593 16.7565 29.1355 16.7565H21.5343C21.5885 17.3197 21.7112 17.7782 21.8881 18.132C22.0813 18.52 22.3105 18.8016 22.5939 19.0309C22.8575 19.2421 23.1752 19.3829 23.5109 19.4533C23.8629 19.5255 24.2329 19.5778 24.603 19.5778H32.0633V2.0993C32.0633 0.935028 32.9983 0 34.1446 0H79.0313C82.1541 0 84.6758 2.52168 84.6758 5.64446ZM21.5705 14.6915H27.9369C27.8665 13.6518 27.585 12.8936 27.1427 12.4171C26.668 11.9406 25.9261 11.677 24.9044 11.677C23.9513 11.677 23.1932 11.9063 22.6102 12.3467C22.0632 12.7528 21.7112 13.5453 21.5705 14.6915Z" fill="#F40040"/>
<path d="M83.4052 19.578H77.2679V15.1501C77.2679 13.2981 76.8798 11.9227 76.1037 11.0761C75.3275 10.2133 74.0928 9.78906 72.47 9.78906H65.4339C63.7931 9.78906 62.5764 10.2133 61.7822 11.0761C61.006 11.9227 60.636 13.2981 60.636 15.1501V34.4463L53.4753 29.1719V29.1539C53.2821 29.0311 53.0348 28.9427 52.7695 28.9427H5.64444C4.70942 28.9427 3.86285 28.5726 3.24552 27.9553C2.64623 27.338 2.25815 26.4914 2.25815 25.5744V24.6394C2.25815 24.0221 1.74551 23.5293 1.12817 23.5293C0.510835 23.5293 0 24.0221 0 24.6394V25.5744C0 28.6791 2.52167 31.2008 5.64444 31.2008H51.7298C51.9229 31.2008 52.1179 31.2532 52.2587 31.3597L52.2947 31.3777L52.311 31.394L60.5836 37.4969C60.8472 37.6738 61.1649 37.7623 61.5006 37.7623C62.3833 37.7623 63.1053 37.0384 63.1053 36.1558V20.5292H63.0873V15.4155C63.0873 14.7981 63.1234 14.2512 63.1938 13.7927C63.2461 13.3523 63.3707 12.9822 63.5458 12.6808C63.7227 12.3992 63.9519 12.188 64.2696 12.0472C64.5873 11.9064 64.9934 11.818 65.5223 11.818H67.7083V20.4588C67.7083 21.1466 68.2732 21.6935 68.9429 21.6935C69.6307 21.6935 70.1776 21.1466 70.1776 20.4588V11.818H72.3834C72.8942 11.818 73.3166 11.9064 73.6343 12.0472C73.934 12.188 74.1813 12.3992 74.3401 12.6808C74.517 12.9816 74.6404 13.3523 74.7101 13.7927C74.7643 14.2512 74.7986 14.7981 74.7986 15.4155V20.3541C74.7986 21.0942 75.3979 21.6935 76.1397 21.6935H82.2589C82.3474 21.6935 82.4178 21.7639 82.4178 21.8524V25.5744C82.4178 26.4914 82.0478 27.338 81.4304 27.9553C80.8131 28.5726 79.9665 28.9427 79.0495 28.9427H66.0692C65.4519 28.9427 64.9393 29.4553 64.9393 30.0727C64.9393 30.6539 65.3815 31.1485 65.9627 31.2008H79.0495C82.1543 31.2008 84.6759 28.6791 84.6759 25.5744V20.8469C84.6759 20.143 84.0929 19.578 83.4052 19.578Z" fill="#F40040"/>
<path fill-rule="evenodd" clip-rule="evenodd" d="M102.239 15.7746C102.239 16.0561 102.239 16.3558 102.205 16.6392C102.167 17.2728 102.044 17.9081 101.835 18.5255C101.304 19.9894 100.282 20.9605 98.7643 21.3829C98.1632 21.5598 97.5477 21.6302 96.9304 21.6302H91.5061C91.2679 21.6302 91.0747 21.4353 91.0747 21.197V5.8972C91.1108 5.26362 91.6578 4.75098 92.3076 4.75098C92.6451 4.75098 92.961 4.87553 93.1921 5.10477C93.3509 5.27987 93.4737 5.49286 93.526 5.73835C93.5441 5.80875 93.5441 5.8972 93.5441 5.98565V9.72576L93.6325 9.74201H96.7896C97.3726 9.74201 97.9538 9.79616 98.5188 9.955C99.999 10.325 101.073 11.224 101.676 12.6355C101.994 13.3756 102.151 14.1337 102.205 14.928C102.239 15.2096 102.239 15.493 102.239 15.7746ZM99.7354 15.7565C99.7354 15.4569 99.7174 15.1572 99.6975 14.8756C99.647 14.381 99.5766 13.9226 99.416 13.4641C99.082 12.5651 98.4647 12.0525 97.5296 11.8774C97.23 11.807 96.9105 11.789 96.6127 11.789C96.1885 11.789 95.7823 11.7709 95.3618 11.7709C94.813 11.7709 94.2679 11.789 93.7029 11.789H93.5441V19.5833H96.7896C97.1777 19.5833 97.5477 19.5309 97.9177 19.4262H97.9358C98.6235 19.2132 99.0983 18.7908 99.3798 18.1211C99.5766 17.6446 99.647 17.15 99.6975 16.6392C99.7174 16.3395 99.7354 16.0562 99.7354 15.7565Z" fill="#F40040"/>
<path d="M126.88 16.3736C127.093 16.8309 127.199 17.3917 127.198 18.0559C127.199 18.7419 127.089 19.3135 126.868 19.7708C126.646 20.222 126.35 20.5885 125.981 20.8574C125.612 21.1282 125.193 21.3165 124.723 21.4224C124.258 21.5259 123.777 21.5783 123.283 21.5795H118.386C117.806 21.5795 117.335 21.1083 117.335 20.5289C117.335 19.9477 117.806 19.4783 118.386 19.4783H123.032C123.251 19.4771 123.471 19.4585 123.691 19.4224C123.903 19.3863 124.097 19.3159 124.274 19.2112C124.447 19.1053 124.586 18.9657 124.691 18.7924C124.792 18.6276 124.843 18.4013 124.844 18.1137C124.843 17.8117 124.806 17.5686 124.732 17.3845C124.658 17.1991 124.552 17.068 124.415 16.991C124.117 16.8141 123.703 16.7202 123.171 16.7202H121.205C120.712 16.7214 120.232 16.6642 119.767 16.5487C119.295 16.4356 118.872 16.2437 118.498 15.9729C118.119 15.7009 117.814 15.3441 117.584 14.9025C117.475 14.6931 117.392 14.4602 117.335 14.2039C117.269 13.9103 117.236 13.5854 117.236 13.2292C117.236 12.8995 117.269 12.595 117.335 12.3158C117.401 12.0451 117.499 11.7996 117.628 11.5793C117.886 11.1353 118.224 10.7785 118.64 10.5089C119.054 10.2406 119.514 10.0529 120.021 9.94576H120.023C120.525 9.84347 121.022 9.79173 121.514 9.79053H125.418C125.999 9.79053 126.471 10.2616 126.471 10.8411C126.469 11.4223 125.999 11.8916 125.418 11.8916H121.375C120.788 11.8916 120.335 11.9891 120.019 12.175C119.72 12.3501 119.564 12.6732 119.561 13.2003C119.562 13.4434 119.597 13.6486 119.665 13.8158C119.735 13.9831 119.838 14.1173 119.972 14.2184H119.974C120.248 14.4241 120.656 14.5343 121.205 14.5343H123.229C123.759 14.5355 124.262 14.5926 124.738 14.7057C125.218 14.8213 125.642 15.0138 126.01 15.2834C126.379 15.5565 126.669 15.9199 126.88 16.3736Z" fill="#F40040"/>
<path d="M169.312 16.3826C169.525 16.8411 169.631 17.4031 169.63 18.0686C169.63 18.7557 169.519 19.3279 169.298 19.7852C169.076 20.2365 168.78 20.6047 168.411 20.8737C168.042 21.1456 167.622 21.3346 167.151 21.4405C166.685 21.544 166.204 21.5957 165.709 21.5957H160.805C160.224 21.5957 159.752 21.1264 159.752 20.5451C159.752 19.9639 160.224 19.4928 160.805 19.4928H165.457C165.676 19.4916 165.896 19.4729 166.117 19.4368C166.329 19.4007 166.524 19.3303 166.702 19.2256C166.875 19.1197 167.014 18.9801 167.117 18.8069C167.219 18.6408 167.271 18.414 167.272 18.1264C167.271 17.8243 167.234 17.5806 167.16 17.3953C167.086 17.21 166.98 17.0788 166.843 17.0018C166.543 16.8249 166.13 16.731 165.597 16.731H163.626C163.133 16.7322 162.653 16.6751 162.186 16.5595C161.714 16.4464 161.291 16.2539 160.917 15.9819C160.536 15.7088 160.231 15.3514 160 14.9097C159.891 14.7003 159.809 14.4675 159.752 14.2111C159.685 13.9163 159.651 13.5908 159.651 13.2346C159.653 12.9037 159.686 12.5986 159.752 12.3194C159.817 12.0487 159.915 11.8026 160.045 11.5812C160.304 11.1371 160.642 10.7797 161.059 10.5089C161.473 10.2406 161.934 10.0529 162.44 9.94576H162.442C162.945 9.84347 163.443 9.79173 163.937 9.79053H167.846C168.429 9.79053 168.901 10.2616 168.901 10.8429C168.899 11.4241 168.429 11.8952 167.846 11.8952H163.798C163.209 11.8952 162.756 11.9927 162.438 12.1786C162.141 12.3537 161.984 12.6786 161.98 13.2057C161.981 13.4488 162.017 13.654 162.086 13.8212C162.155 13.9885 162.257 14.1227 162.393 14.2238H162.395C162.668 14.4314 163.077 14.5415 163.626 14.5415H165.655C166.186 14.5427 166.689 14.6004 167.166 14.7148C167.646 14.8291 168.071 15.0216 168.44 15.2924C168.809 15.5656 169.099 15.929 169.312 16.3826Z" fill="#F40040"/>
<path d="M180.682 16.3826C180.895 16.8411 181.001 17.4031 181 18.0686C181.001 18.7557 180.891 19.3279 180.668 19.7852C180.446 20.2365 180.15 20.6047 179.782 20.8737C179.412 21.1456 178.992 21.3346 178.522 21.4405C178.056 21.544 177.575 21.5957 177.079 21.5957H172.175C171.594 21.5957 171.123 21.1264 171.123 20.5451C171.123 19.9639 171.594 19.4928 172.175 19.4928H176.829C177.048 19.4916 177.267 19.4729 177.487 19.4368C177.699 19.4007 177.894 19.3303 178.072 19.2256C178.246 19.1197 178.385 18.9801 178.489 18.8069C178.59 18.6408 178.642 18.414 178.643 18.1264C178.642 17.8243 178.604 17.5806 178.531 17.3953C178.456 17.21 178.35 17.0788 178.213 17.0018C177.913 16.8249 177.502 16.731 176.968 16.731H174.998C174.504 16.7322 174.023 16.6751 173.556 16.5595C173.085 16.4464 172.662 16.2539 172.287 15.9819C171.907 15.7088 171.602 15.3514 171.372 14.9097C171.262 14.7003 171.179 14.4675 171.123 14.2111C171.055 13.9163 171.022 13.5908 171.023 13.2346C171.023 12.9037 171.057 12.5986 171.123 12.3194C171.188 12.0487 171.285 11.8026 171.415 11.5812C171.675 11.1371 172.013 10.7797 172.43 10.5089C172.844 10.2406 173.305 10.0529 173.812 9.94576H173.814C174.317 9.84347 174.815 9.79173 175.307 9.79053H179.217C179.8 9.79053 180.271 10.2616 180.271 10.8429C180.269 11.4241 179.8 11.8952 179.217 11.8952H175.168C174.579 11.8952 174.126 11.9927 173.811 12.1786C173.511 12.3537 173.354 12.6786 173.35 13.2057C173.351 13.4488 173.387 13.654 173.457 13.8212C173.527 13.9885 173.629 14.1227 173.764 14.2238H173.765C174.04 14.4314 174.45 14.5415 174.998 14.5415H177.025C177.557 14.5427 178.061 14.6004 178.536 14.7148C179.018 14.8291 179.442 15.0216 179.811 15.2924C180.179 15.5656 180.469 15.929 180.682 16.3826Z" fill="#F40040"/>
<path d="M131.402 6.21685C131.162 5.97858 130.833 5.83057 130.472 5.83057H130.371C130.01 5.83057 129.682 5.97858 129.443 6.21685C129.205 6.45512 129.057 6.78365 129.057 7.14647C129.057 7.50929 129.205 7.83781 129.443 8.07608C129.682 8.31435 130.01 8.46237 130.371 8.46237H130.472C130.833 8.46237 131.162 8.31435 131.402 8.07608C131.64 7.83781 131.788 7.50929 131.788 7.14647C131.788 6.78365 131.64 6.45512 131.402 6.21685Z" fill="#F40040"/>
<path d="M115.398 11.1425V20.565C115.398 20.852 115.285 21.1065 115.101 21.2943C114.915 21.4802 114.662 21.5957 114.38 21.5957H109.068C108.2 21.5957 107.469 21.5036 106.877 21.334C106.285 21.1607 105.832 20.9116 105.503 20.5903C105.173 20.2726 104.916 19.8412 104.74 19.269C104.56 18.6973 104.47 17.9916 104.469 17.1516V11.1425C104.469 10.7653 104.617 10.4313 104.862 10.1876C105.102 9.94214 105.434 9.79053 105.804 9.79053C106.173 9.79053 106.505 9.94214 106.747 10.1876C106.99 10.4313 107.14 10.7653 107.14 11.1425V17.4837C107.138 17.8159 107.176 18.1161 107.256 18.3845C107.379 18.7924 107.611 19.1336 107.944 19.3538C108.277 19.574 108.685 19.6679 109.14 19.6679H112.727V11.1425C112.727 10.7653 112.875 10.4313 113.12 10.1876C113.361 9.94214 113.693 9.79053 114.063 9.79053C114.431 9.79053 114.763 9.94214 115.005 10.1876C115.249 10.4313 115.398 10.7653 115.398 11.1425Z" fill="#F40040"/>
<path d="M144.909 14.2601V20.2475C144.909 20.6211 144.76 20.9551 144.52 21.1988C144.279 21.4406 143.947 21.5923 143.581 21.5923C143.211 21.5923 142.881 21.4406 142.64 21.1988C142.399 20.9551 142.251 20.6211 142.251 20.2475V13.8738C142.252 13.538 142.213 13.2354 142.133 12.9658C142.048 12.6969 141.92 12.4604 141.733 12.2727C141.548 12.0832 141.31 11.9514 141.039 11.8701C140.769 11.7871 140.467 11.751 140.126 11.751H136.808V20.2475C136.808 20.6211 136.657 20.9551 136.418 21.1988C136.178 21.4406 135.848 21.5923 135.48 21.5923H135.478C135.11 21.5923 134.778 21.4406 134.536 21.1988C134.297 20.9551 134.149 20.6211 134.149 20.2475V10.7979C134.149 10.529 134.252 10.2871 134.427 10.112C134.602 9.93692 134.839 9.82861 135.104 9.82861H140.33C141.194 9.83102 141.921 9.91887 142.51 10.0922C143.103 10.2636 143.554 10.5145 143.882 10.8304C144.209 11.1481 144.464 11.5795 144.642 12.1517C144.814 12.7167 144.909 13.4243 144.909 14.2601Z" fill="#F40040"/>
<path fill-rule="evenodd" clip-rule="evenodd" d="M157.041 19.5254C157.611 19.5254 158.075 19.9875 158.075 20.5579C158.075 21.1283 157.611 21.5905 157.041 21.5905H152.153C151.448 21.5905 150.778 21.487 150.142 21.28C149.505 21.0742 148.936 20.7294 148.436 20.2818C147.938 19.8179 147.543 19.2168 147.25 18.4929C146.958 17.7547 146.821 16.8575 146.821 15.8268C146.821 14.7781 146.958 13.881 147.25 13.1247C147.543 12.3665 147.938 11.7311 148.454 11.2329C148.953 10.7329 149.557 10.3719 150.261 10.1138C150.949 9.87372 151.705 9.75098 152.514 9.75098C154.389 9.75098 155.783 10.251 156.696 11.2835C157.539 12.2474 157.987 13.6247 158.038 15.3954V15.5164C158.021 16.2204 157.436 16.7727 156.731 16.7727H149.314C149.366 17.3233 149.487 17.7709 149.658 18.1157C149.85 18.4929 150.072 18.7691 150.346 18.993C150.606 19.1987 150.915 19.3359 151.241 19.4045C151.584 19.4731 151.947 19.5254 152.308 19.5254H157.041ZM149.35 14.7582H155.561C155.491 13.7438 155.216 13.0037 154.785 12.5398C154.321 12.0741 153.599 11.8178 152.601 11.8178C151.673 11.8178 150.931 12.0416 150.364 12.4712C149.83 12.8665 149.487 13.6409 149.35 14.7582Z" fill="#F40040"/>
<path d="M131.434 10.2075C131.182 9.94937 130.835 9.79053 130.449 9.79053C130.064 9.79053 129.718 9.94937 129.465 10.2075C129.212 10.4638 129.057 10.8158 129.057 11.2093V20.1787C129.057 20.5704 129.212 20.9224 129.465 21.1805C129.718 21.4369 130.064 21.5957 130.449 21.5957C130.835 21.5957 131.182 21.4369 131.434 21.1805C131.685 20.9224 131.842 20.5704 131.842 20.1787V11.2093C131.842 10.8158 131.685 10.4638 131.434 10.2075Z" fill="#F40040"/>
</svg>
